<?xml version="1.0" standalone="no"?>
<!DOCTYPE svg PUBLIC "-//W3C//DTD SVG 20010904//EN"
 "http://www.w3.org/TR/2001/REC-SVG-20010904/DTD/svg10.dtd">
<svg version="1.0" xmlns="http://www.w3.org/2000/svg"
 width="400.000000pt" height="400.000000pt" viewBox="0 0 400.000000 400.000000"
 preserveAspectRatio="xMidYMid meet">
<metadata>
Created by potrace 1.11, written by Peter Selinger 2001-2013
</metadata>
<g transform="translate(0.000000,400.000000) scale(0.100000,-0.100000)"
fill="#000000" stroke="none">
<path d="M0 2000 l0 -2000 2000 0 2000 0 0 2000 0 2000 -2000 0 -2000 0 0
-2000z m1430 525 l365 -365 -365 -365 c-201 -201 -369 -365 -375 -365 -16 0
-145 133 -145 150 0 8 127 142 283 298 l282 282 -282 282 c-156 155 -283 289
-283 297 0 17 129 151 145 151 5 0 174 -164 375 -365z m1505 -1215 l0 -95
-595 -3 c-327 -1 -605 0 -617 3 -21 5 -23 11 -23 84 0 44 3 87 6 95 6 15 67
16 618 14 l611 -3 0 -95z"/>
</g>
</svg>
